# xmcd
# 
# Track frame offsets:
#     150
#     17387
#     34714
#     44945
#     63135
#     80628
#     95770
#     108055
#     124457
#     142570
#     160805
# 
# Disc length: 2380
# 
# Revision: 2
# Processed by: cddbd v1.5.2PL0 Copyright (c) Steve Scherf et al.
# Submitted via: BonkEnc v1.0.8
# 
DISCID=88094a0b
DTITLE=Bryce Pallister - RDY 2GO
DYEAR=2009
DGENRE=Country
TTITLE0=One Day
TTITLE1=Ready To Go
TTITLE2=Pretty Darn Good
TTITLE3=One and Only
TTITLE4=Driftn
TTITLE5=City To City
TTITLE6=Temperature Rising
TTITLE7=That's The Truth
TTITLE8=Soldiers Song
TTITLE9=Heartless Traveler
TTITLE10=Kings To Jacks
EXTD=
EXTT0=
EXTT1=
EXTT2=
EXTT3=
EXTT4=
EXTT5=
EXTT6=
EXTT7=
EXTT8=
EXTT9=
EXTT10=
PLAYORDER=
